<svg width="67" height="48" viewBox="0 0 67 48" fill="none" xmlns="http://www.w3.org/2000/svg">
<g clip-path="url(#clip0_1978_5200)">
<path fill-rule="evenodd" clip-rule="evenodd" d="M60.4805 37.5582C60.7218 37.309 60.9158 37.0169 61.0639 36.6811C61.2115 36.3458 61.2853 35.9835 61.2853 35.5934C61.2853 35.2191 61.2115 34.8647 61.0639 34.529C60.9158 34.1941 60.7218 33.9016 60.4805 33.6519C60.2392 33.4027 59.9519 33.2079 59.6177 33.0678C59.2832 32.9269 58.9296 32.8567 58.5565 32.8567C58.1835 32.8567 57.8295 32.9269 57.4954 33.0678C57.1608 33.2079 56.8731 33.4027 56.6326 33.6519C56.3913 33.9016 56.1972 34.1901 56.0496 34.5175C55.9016 34.8449 55.8278 35.1961 55.8278 35.5699C55.8278 35.9759 55.9016 36.3458 56.0496 36.6811C56.1972 37.0169 56.3913 37.309 56.6326 37.5582C56.8731 37.8082 57.1608 38.0027 57.4954 38.1435C57.8295 38.2836 58.1835 38.3539 58.5565 38.3539C58.9296 38.3539 59.2832 38.2836 59.6177 38.1435C59.9519 38.0027 60.2392 37.8082 60.4805 37.5582ZM41.2926 37.5582C41.5335 37.309 41.7279 37.0169 41.8756 36.6811C42.0232 36.3458 42.0974 35.9835 42.0974 35.5934C42.0974 35.2191 42.0232 34.8647 41.8756 34.529C41.7279 34.1941 41.5335 33.9016 41.2926 33.6519C41.0513 33.4027 40.764 33.2079 40.4298 33.0678C40.0953 32.9269 39.7417 32.8567 39.3686 32.8567C38.9956 32.8567 38.6416 32.9269 38.3074 33.0678C37.9729 33.2079 37.6856 33.4027 37.4443 33.6519C37.2034 33.9016 37.0089 34.1901 36.8613 34.5175C36.7133 34.8449 36.6403 35.1961 36.6403 35.5699C36.6403 35.9759 36.7133 36.3458 36.8613 36.6811C37.0089 37.0169 37.2034 37.309 37.4443 37.5582C37.6856 37.8082 37.9729 38.0027 38.3074 38.1435C38.6416 38.2836 38.9956 38.3539 39.3686 38.3539C39.7417 38.3539 40.0953 38.2836 40.4298 38.1435C40.764 38.0027 41.0513 37.8082 41.2926 37.5582ZM61.4135 29.6636C62.2917 29.9838 63.0537 30.4283 63.699 30.9974C64.3443 31.5665 64.8455 32.2447 65.2035 33.0321C65.5606 33.8198 65.7396 34.6893 65.7396 35.6402C65.7396 36.5914 65.5567 37.4614 65.1916 38.2483C64.826 39.0361 64.3248 39.7147 63.6875 40.2834C63.0497 40.8533 62.2842 41.293 61.3901 41.6049C60.5313 41.9041 59.6046 42.0597 58.6101 42.0716C58.5573 42.0752 58.5038 42.0772 58.4498 42.0772H44.6694C44.6181 42.2772 44.2525 43.6644 43.8907 45.037L43.8824 45.0686L43.8812 45.0729L43.8801 45.0773L43.88 45.0778C43.5098 46.4821 43.147 47.8587 43.1324 47.9197H38.2102L39.7103 42.0657H39.6726C39.5488 42.0704 39.4242 42.0728 39.2984 42.0728C38.2725 42.0728 37.324 41.9164 36.4533 41.6049C35.5826 41.293 34.8326 40.8489 34.2024 40.2719C33.573 39.6952 33.0793 39.0047 32.7217 38.2015C32.3642 37.399 32.1856 36.5061 32.1856 35.5235C32.1856 34.6346 32.3642 33.8043 32.7217 33.0321C33.0793 32.2602 33.5769 31.5903 34.2143 31.0204C34.8516 30.4517 35.61 30.0033 36.4883 29.6759C37.3665 29.3481 38.3269 29.1842 39.3686 29.1842C40.3949 29.1842 41.347 29.3445 42.2256 29.6636C43.1038 29.9838 43.8658 30.4283 44.5111 30.9974C45.156 31.5665 45.6576 32.2447 46.0155 33.0321C46.3727 33.8198 46.5517 34.6893 46.5517 35.6402C46.5517 36.4375 46.4227 37.1764 46.1664 37.8586H51.7703C51.5056 37.1466 51.3735 36.368 51.3735 35.5235C51.3735 34.6346 51.5521 33.8043 51.91 33.0321C52.2672 32.2602 52.7645 31.5903 53.4022 31.0204C54.0399 30.4517 54.7975 30.0033 55.6762 29.6759C56.5548 29.3481 57.5148 29.1842 58.5565 29.1842C59.5828 29.1842 60.5349 29.3445 61.4135 29.6636ZM28.8018 31.0134C28.1561 30.4439 27.3941 29.9998 26.5163 29.68C25.6377 29.3605 24.6852 29.2006 23.6593 29.2006H23.6478H17.1196V32.8719C18.2578 32.8723 23.5256 32.8731 23.6415 32.8731H23.6478C24.0209 32.8731 24.3741 32.9429 24.7086 33.0834C25.0428 33.2239 25.3301 33.4191 25.5714 33.6679C25.8123 33.9176 26.0067 34.2101 26.1548 34.545C26.3024 34.8807 26.3762 35.2355 26.3762 35.6094C26.3762 35.9995 26.3024 36.3622 26.1548 36.6971C26.0067 37.0329 25.8123 37.325 25.5714 37.5742C25.3301 37.8238 25.0428 38.0187 24.7086 38.1591C24.3741 38.2992 24.0209 38.3699 23.6478 38.3699L17.1196 38.3683L17.1168 42.0785L23.5776 42.0888H23.5784H23.5891C24.6308 42.0888 25.5984 41.9328 26.4929 41.6209C27.3866 41.309 28.1521 40.8689 28.7899 40.299C29.4272 39.7303 29.9288 39.0521 30.2943 38.2643C30.6595 37.477 30.8424 36.6078 30.8424 35.6562C30.8424 34.7053 30.6634 33.8358 30.3059 33.0481C29.9483 32.2611 29.4467 31.5829 28.8018 31.0134ZM58.5147 24.0011C58.1956 24.0011 57.896 24.0622 57.6154 24.1836C57.3345 24.3054 57.0876 24.4721 56.8757 24.6844C56.6626 24.8972 56.4959 25.1436 56.3749 25.4242C56.253 25.7051 56.1927 26.0048 56.1927 26.3238C56.1927 26.6421 56.253 26.9421 56.3749 27.2227C56.4959 27.5037 56.6626 27.7501 56.8757 27.9625C57.0876 28.1756 57.3345 28.3422 57.6154 28.4637C57.896 28.5855 58.1956 28.6454 58.5147 28.6454C58.8334 28.6454 59.133 28.5855 59.414 28.4637C59.6949 28.3422 59.941 28.1756 60.1537 27.9625C60.3664 27.7501 60.5327 27.5037 60.6545 27.2227C60.776 26.9421 60.8367 26.6421 60.8367 26.3238C60.8367 26.0048 60.776 25.7051 60.6545 25.4242C60.5327 25.1436 60.3664 24.8972 60.1537 24.6844C59.941 24.4721 59.6949 24.3054 59.414 24.1836C59.133 24.0622 58.8334 24.0011 58.5147 24.0011ZM8.74847 0.000465393H4.40649C4.393 0.000465393 4.38109 0.00959015 4.37752 0.0234833L1.47612 11.3191H3.89336C5.06289 11.3191 6.08439 10.5254 6.37687 9.38964L8.77744 0.0385628C8.7826 0.0195122 8.76792 0.000465393 8.74847 0.000465393ZM0.200444 15.3355C0.198063 13.8631 1.19774 12.623 2.92247 12.6198C4.6468 12.617 5.65044 13.8536 5.65322 15.3263C5.6556 16.8455 4.65593 18.0158 2.9312 18.0186C1.20687 18.0214 0.202825 16.8546 0.200444 15.3355ZM61.2983 18.0788H65.7609V0.0290833H61.2983V18.0788ZM32.0449 4.50059C31.7635 4.37915 31.5171 4.21208 31.3048 3.99936C31.0921 3.78705 30.925 3.541 30.804 3.25963C30.6821 2.97905 30.6218 2.67903 30.6218 2.36036C30.6218 2.04168 30.6821 1.74206 30.804 1.46108C30.925 1.18051 31.0921 0.933662 31.3048 0.720951C31.5171 0.508633 31.7635 0.341953 32.0449 0.220516C32.3255 0.0990791 32.6251 0.0379639 32.9438 0.0379639C33.2625 0.0379639 33.5621 0.0990791 33.8431 0.220516C34.124 0.341953 34.3705 0.508633 34.5832 0.720951C34.7955 0.933662 34.9626 1.18051 35.084 1.46108C35.2055 1.74206 35.2662 2.04168 35.2662 2.36036C35.2662 2.67903 35.2055 2.97905 35.084 3.25963C34.9626 3.541 34.7955 3.78705 34.5832 3.99936C34.3705 4.21208 34.124 4.37915 33.8431 4.50059C33.5621 4.62203 33.2625 4.68275 32.9438 4.68275C32.6251 4.68275 32.3255 4.62203 32.0449 4.50059ZM21.7545 23.7977C22.0347 23.9196 22.3351 23.9799 22.6538 23.9799C22.9725 23.9799 23.2721 23.9196 23.5531 23.7977C23.8336 23.6763 24.0801 23.5096 24.2928 23.2969C24.5051 23.0846 24.6722 22.8381 24.7936 22.5568C24.9151 22.2762 24.9762 21.9766 24.9762 21.6575C24.9762 21.3392 24.9151 21.0396 24.7936 20.7586C24.6722 20.4781 24.5051 20.2316 24.2928 20.0189C24.0801 19.8062 23.8336 19.6391 23.5531 19.5177C23.2721 19.3962 22.9725 19.3355 22.6538 19.3355C22.3351 19.3355 22.0347 19.3962 21.7545 19.5177C21.4735 19.6391 21.2271 19.8062 21.0144 20.0189C20.8017 20.2316 20.6346 20.4781 20.514 20.7586C20.3917 21.0396 20.3318 21.3392 20.3318 21.6575C20.3318 21.9766 20.3917 22.2762 20.514 22.5568C20.6346 22.8381 20.8017 23.0846 21.0144 23.2969C21.2271 23.5096 21.4735 23.6763 21.7545 23.7977ZM18.988 23.2983C18.7753 23.5111 18.5292 23.6777 18.2482 23.7992C17.9673 23.921 17.6676 23.9813 17.349 23.9813C17.0303 23.9813 16.7303 23.921 16.4501 23.7992C16.1687 23.6777 15.9223 23.5111 15.71 23.2983C15.4969 23.086 15.3298 22.8396 15.2091 22.5582C15.0873 22.2776 15.027 21.978 15.027 21.6589C15.027 21.3407 15.0873 21.041 15.2091 20.7601C15.3298 20.4795 15.4969 20.233 15.71 20.0203C15.9223 19.8076 16.1687 19.6405 16.4501 19.5191C16.7303 19.3977 17.0303 19.3369 17.349 19.3369C17.6676 19.3369 17.9673 19.3977 18.2482 19.5191C18.5292 19.6405 18.7753 19.8076 18.988 20.0203C19.2007 20.233 19.3674 20.4795 19.4888 20.7601C19.6103 21.041 19.6714 21.3407 19.6714 21.6589C19.6714 21.978 19.6103 22.2776 19.4888 22.5582C19.3674 22.8396 19.2007 23.086 18.988 23.2983ZM13.6789 20.0203C13.4662 19.808 13.2197 19.6409 12.9391 19.5191C12.6582 19.3981 12.3585 19.3369 12.0399 19.3369C11.7212 19.3369 11.4212 19.3981 11.1406 19.5191C10.8596 19.6409 10.6132 19.808 10.4005 20.0203C10.1881 20.233 10.0211 20.4795 9.90002 20.7601C9.77818 21.041 9.71786 21.3407 9.71786 21.6593C9.71786 21.9784 9.77818 22.2776 9.90002 22.5586C10.0211 22.8396 10.1881 23.0864 10.4005 23.2987C10.6132 23.5115 10.8596 23.6781 11.1406 23.7992C11.4212 23.921 11.7212 23.9813 12.0399 23.9813C12.3585 23.9813 12.6582 23.921 12.9391 23.7992C13.2197 23.6781 13.4662 23.5115 13.6789 23.2987C13.8912 23.0864 14.0583 22.8396 14.1797 22.5586C14.3011 22.2776 14.3619 21.9784 14.3619 21.6593C14.3619 21.3407 14.3011 21.041 14.1797 20.7601C14.0583 20.4795 13.8912 20.233 13.6789 20.0203ZM34.1331 18.0557L33.1104 18.0652H32.8929L31.8706 18.0557C30.3082 18.0557 28.9125 17.3679 27.9822 16.2881L27.9744 16.2991C27.9239 16.3696 27.8737 16.4396 27.8168 16.5068C27.4068 16.9925 26.9096 17.3683 26.3254 17.6338C25.7412 17.8997 25.0396 18.0779 24.2197 18.0779L24.2213 18.0783H7.56211L8.21612 15.5218C8.21612 15.5218 8.43955 14.353 9.73132 13.9792C9.92895 13.9161 10.1508 13.8697 10.404 13.8514H25.1432C25.5075 13.8157 25.7107 13.7165 25.7107 13.7165C25.9384 13.6407 26.1432 13.5113 26.3254 13.3295C26.5377 13.1168 26.6857 12.8323 26.7691 12.4759C26.7771 12.4427 26.7835 12.4058 26.7899 12.3693L26.7964 12.3322L26.7976 5.66986L30.9468 5.67105V11.4639C30.9468 12.0402 30.9884 12.5069 31.0718 12.8644C31.0733 12.8708 31.0751 12.8771 31.077 12.8833C31.0785 12.8881 31.08 12.893 31.0816 12.8978C31.0847 12.9074 31.0878 12.9171 31.0904 12.9271H31.0908C31.2015 13.1863 31.3472 13.4117 31.5281 13.6046C31.7087 13.797 31.9246 13.9474 32.175 14.0558C32.4107 14.1578 32.6592 14.2102 32.9207 14.2161H33.0826C33.3442 14.2102 33.5926 14.1578 33.8287 14.0558C34.0787 13.9474 34.2946 13.797 34.4756 13.6046C34.6498 13.4188 34.7911 13.2025 34.9006 12.9553C34.905 12.9462 34.9185 12.9081 34.9212 12.8986C34.9252 12.8874 34.9288 12.8759 34.9316 12.8644C35.0153 12.5069 35.057 12.0402 35.057 11.4639V5.67224L39.2057 5.67105L39.2069 11.6397C39.2255 11.9695 39.2608 12.2561 39.3156 12.491C39.399 12.8478 39.547 13.1315 39.7597 13.3446C39.9415 13.5264 40.1462 13.6558 40.374 13.7316C40.374 13.7316 40.5772 13.8304 40.9419 13.8665H53.3964C53.6579 13.8601 53.9068 13.8081 54.1425 13.7066C54.3929 13.5982 54.6084 13.4474 54.7894 13.2549C54.9703 13.0629 55.1156 12.8363 55.2267 12.5775H55.2271C55.2298 12.5668 55.233 12.5568 55.2362 12.5468C55.238 12.5412 55.2398 12.5356 55.2415 12.5298C55.243 12.5248 55.2444 12.5197 55.2457 12.5144C55.3287 12.1576 55.3708 11.6909 55.3708 11.1139V5.7024L59.5199 5.70399L59.5207 13.1367V13.1525V13.1652C59.5199 13.2454 59.5183 13.3248 59.5147 13.403C59.5139 13.4097 59.5135 13.4161 59.5131 13.4224C59.5012 13.6502 59.4758 13.8713 59.4365 14.0875L59.4274 14.0939C58.9754 16.3679 56.9177 18.0854 54.4469 18.0854L41.8634 18.0946L41.8654 18.0942C41.0455 18.0942 40.3435 17.9612 39.7593 17.6957C39.1755 17.4298 38.6779 17.054 38.2679 16.5687C38.185 16.4702 38.1088 16.3698 38.0393 16.2663C37.1087 17.3584 35.7058 18.0557 34.1331 18.0557ZM1.53791 0.250778H1.54346L1.86968 1.15958H2.01453L2.34074 0.250778H2.34669V1.15958H2.59195V0.0333023H2.19629L1.9423 0.699623L1.68871 0.0333023H1.29265V1.15958H1.53791V0.250778ZM0.813976 1.15958H0.543718V0.250778H0.200439V0.0333023H1.15686V0.250778H0.813976V1.15958Z" fill="#E20074"/>
</g>
<defs>
<clipPath id="clip0_1978_5200">
<rect width="65.8291" height="48" fill="white" transform="translate(0.200439)"/>
</clipPath>
</defs>
</svg>
