<svg width="119" height="24" viewBox="0 0 119 24" fill="none" xmlns="http://www.w3.org/2000/svg">
<g clip-path="url(#clip0_5532_4769)">
<path d="M114.507 18.0857H118.967V0H114.507V18.0857Z" fill="#E20074"/>
<path d="M88.4877 2.33339C88.4877 3.61572 87.4482 4.65526 86.1659 4.65526C84.8835 4.65526 83.844 3.61572 83.844 2.33339C83.844 1.05106 84.8835 0.0115199 86.1659 0.0115199C87.4482 0.0115199 88.4877 1.05106 88.4877 2.33339Z" fill="#E20074"/>
<path d="M75.8805 24C77.1628 24 78.2023 22.9605 78.2023 21.6781C78.2023 20.3958 77.1628 19.3563 75.8805 19.3563C74.5981 19.3563 73.5586 20.3958 73.5586 21.6781C73.5586 22.9605 74.5981 24 75.8805 24Z" fill="#E20074"/>
<path d="M72.9055 21.6781C72.9055 22.9605 71.8659 24 70.5836 24C69.3013 24 68.2617 22.9605 68.2617 21.6781C68.2617 20.3958 69.3013 19.3563 70.5836 19.3563C71.8659 19.3563 72.9055 20.3958 72.9055 21.6781Z" fill="#E20074"/>
<path d="M65.2867 24C66.569 24 67.6086 22.9605 67.6086 21.6781C67.6086 20.3958 66.569 19.3563 65.2867 19.3563C64.0044 19.3563 62.9648 20.3958 62.9648 21.6781C62.9648 22.9605 64.0044 24 65.2867 24Z" fill="#E20074"/>
<path d="M87.3538 18.0625C88.9258 18.0625 90.3281 17.3639 91.2583 16.2695C91.6776 16.8965 92.2944 17.39 92.9775 17.7018C93.5614 17.9679 94.2631 18.1011 95.0826 18.1011L95.0806 18.1015L107.658 18.0923C110.128 18.0923 112.185 16.3713 112.637 14.0928L112.646 14.0865C112.673 13.9382 112.686 13.7898 112.7 13.6411C112.707 13.561 112.715 13.4808 112.724 13.4005C112.728 13.3116 112.73 13.2227 112.73 13.1337L112.729 5.6862L108.582 5.68461V11.1069C108.582 11.6851 108.54 12.1527 108.457 12.5102C108.454 12.5216 108.451 12.5321 108.447 12.5426C108.444 12.5525 108.441 12.5629 108.438 12.5734C108.327 12.8327 108.182 13.0597 108.001 13.2522C107.82 13.4451 107.604 13.5962 107.354 13.7047C107.119 13.8065 106.87 13.8586 106.608 13.865H94.1596C93.795 13.8288 93.5919 13.7298 93.5919 13.7298C93.3642 13.6538 93.1595 13.5242 92.9779 13.3421C92.7652 13.1285 92.6173 12.8442 92.534 12.4867C92.4792 12.2513 92.4439 11.9642 92.4253 11.6338L92.4241 5.6532L88.2773 5.65439V11.4576C88.2773 12.035 88.2356 12.5026 88.1519 12.8609C88.1491 12.8724 88.1456 12.884 88.1416 12.8951C88.1388 12.9047 88.1253 12.9428 88.121 12.952C88.0115 13.1997 87.8703 13.4164 87.6961 13.6025C87.5153 13.7954 87.2995 13.9461 87.0496 14.0546C86.5421 14.2744 85.9041 14.2747 85.3966 14.0546C85.1463 13.9461 84.9305 13.7954 84.75 13.6025C84.5692 13.4093 84.4236 13.1834 84.3129 12.9237C84.3103 12.9136 84.3071 12.9038 84.3038 12.8941C84.3002 12.8832 84.2966 12.8723 84.2939 12.8609C84.2106 12.5026 84.1689 12.035 84.1689 11.4576V5.6532L80.0217 5.65201L80.0205 12.3277C80.0205 12.6914 79.7884 13.0872 79.5496 13.327C79.3676 13.5091 79.1629 13.6387 78.9352 13.7147C78.9352 13.7147 78.7321 13.8141 78.3679 13.8499H63.6355C63.3824 13.8682 63.1606 13.9147 62.9631 13.9779C61.6719 14.3525 61.4486 15.5235 61.4486 15.5235L60.7949 18.0852H77.4465L77.4449 18.0848C78.2644 18.0848 78.9657 17.9062 79.5496 17.6398C80.2186 17.335 80.7879 16.876 81.2057 16.2914C82.1356 17.3734 83.5307 18.0625 85.0924 18.0625H87.3538Z" fill="#E20074"/>
<path d="M55.5396 2.33339C55.5396 3.61572 54.5001 4.65526 53.2178 4.65526C51.9354 4.65526 50.8959 3.61572 50.8959 2.33339C50.8959 1.05106 51.9354 0.0115219 53.2178 0.0115219C54.5001 0.0115219 55.5396 1.05106 55.5396 2.33339Z" fill="#E20074"/>
<path d="M23.5092 7.05999C22.8638 6.48937 22.1022 6.0444 21.2248 5.7239C20.3465 5.40379 19.3945 5.24354 18.3691 5.24354H11.8323V8.92216C12.97 8.92256 18.2354 8.92335 18.3513 8.92335H18.3576C19.103 8.92335 19.7977 9.22094 20.2803 9.71984C20.7622 10.2205 21.0847 10.9165 21.0847 11.6651C21.0847 12.4478 20.7613 13.135 20.2803 13.6339C19.7978 14.1342 19.1031 14.4311 18.3576 14.4311L11.8323 14.4295L11.8295 18.1471L18.2874 18.1575H18.2989C19.3402 18.1575 20.3073 18.0012 21.2014 17.6886C22.0947 17.3761 22.8599 16.9351 23.4973 16.3641C24.1344 15.7943 24.6358 15.1147 25.0011 14.3254C25.366 13.5364 25.5489 12.6656 25.5489 11.712C25.5489 10.7593 25.37 9.88804 25.0126 9.09871C24.6552 8.31018 24.1538 7.63061 23.5092 7.05999Z" fill="#E20074"/>
<path fill-rule="evenodd" clip-rule="evenodd" d="M56.1061 5.70751C56.9839 6.02841 57.7456 6.47377 58.3905 7.04399C59.0355 7.61421 59.5365 8.29379 59.8943 9.08272C60.2513 9.87204 60.4302 10.7433 60.4302 11.696C60.4302 12.6492 60.2474 13.5208 59.8824 14.3094C59.5171 15.0987 59.0161 15.7787 58.379 16.3485C57.7416 16.9195 56.9764 17.3601 56.0827 17.6726C55.1786 17.9884 54.2119 18.1458 53.1437 18.1458H39.3696C39.3178 18.3481 38.9465 19.7606 38.5818 21.1476L38.578 21.162C38.2089 22.5658 37.8478 23.9391 37.8333 24H32.9133L34.4128 18.1343C34.3441 18.1343 34.2755 18.1361 34.2069 18.1379C34.1384 18.1397 34.0696 18.1415 34.001 18.1415C32.9756 18.1415 32.0276 17.9848 31.1573 17.6726C30.287 17.3601 29.5372 16.9151 28.9073 16.337C28.2782 15.7592 27.7847 15.0673 27.4273 14.2624C27.0699 13.4584 26.8914 12.5637 26.8914 11.5791C26.8914 10.6884 27.0699 9.85653 27.4273 9.08272C27.7847 8.3093 28.2822 7.63807 28.9192 7.06705C29.5563 6.49723 30.3143 6.04789 31.1922 5.71983C32.07 5.39138 33.03 5.22715 34.0712 5.22715C35.097 5.22715 36.0486 5.3878 36.9269 5.70751C37.8047 6.02841 38.5663 6.47377 39.2113 7.04399C39.8559 7.61421 40.3573 8.29379 40.7151 9.08272C41.0721 9.87204 41.251 10.7433 41.251 11.696C41.251 12.4949 41.1221 13.2353 40.8659 13.9189H46.4673C46.2027 13.2055 46.0706 12.4253 46.0706 11.5791C46.0706 10.6884 46.2491 9.85653 46.6069 9.08272C46.9639 8.3093 47.461 7.63807 48.0984 7.06705C48.7359 6.49723 49.4931 6.04789 50.3714 5.71983C51.2496 5.39138 52.2092 5.22715 53.2504 5.22715C54.2762 5.22715 55.2279 5.3878 56.1061 5.70751ZM53.2504 14.4151C53.9961 14.4151 54.6911 14.1189 55.1735 13.6179C55.6555 13.1188 55.978 12.4314 55.978 11.6491C55.978 10.8997 55.6562 10.2045 55.1735 9.70384C54.6907 9.20393 53.9955 8.90696 53.2504 8.90696C52.5046 8.90696 51.8081 9.20444 51.3274 9.70384C50.8449 10.2042 50.5229 10.8767 50.5229 11.6257C50.5229 12.4395 50.8451 13.1186 51.3274 13.6179C51.8077 14.1184 52.504 14.4151 53.2504 14.4151ZM34.0712 14.4151C34.8169 14.4151 35.5119 14.1189 35.9943 13.6179C36.4756 13.1187 36.7988 12.4313 36.7988 11.6491C36.7988 10.8999 36.4763 10.2046 35.9943 9.70384C35.5115 9.20393 34.8163 8.90696 34.0712 8.90696C33.3254 8.90696 32.6301 9.20444 32.1478 9.70384C31.6661 10.2042 31.3441 10.8767 31.3441 11.6257C31.3441 12.4395 31.6663 13.1186 32.1478 13.6179C32.6297 14.1184 33.3248 14.4151 34.0712 14.4151Z" fill="#E20074"/>
<path d="M4.45944 0.118362H8.79946C8.81889 0.118362 8.83357 0.13745 8.82841 0.156537L6.42893 9.52625C6.13658 10.6643 5.11554 11.4596 3.94654 11.4596H1.5304L4.43048 0.141426C4.43405 0.127509 4.44595 0.118362 4.45944 0.118362Z" fill="#E20074"/>
<path d="M0.255253 15.4844C0.252873 14.0091 1.2521 12.7665 2.97604 12.7633C4.69959 12.7605 5.70278 13.9996 5.70556 15.4753C5.70794 16.9974 4.70872 18.1701 2.98477 18.1729C1.26122 18.1757 0.257633 17.0066 0.255253 15.4844Z" fill="#E20074"/>
</g>
<defs>
<clipPath id="clip0_5532_4769">
<rect width="118.712" height="24" fill="white" transform="translate(0.255249)"/>
</clipPath>
</defs>
</svg>
